<?xml version="1.0" standalone="no"?>
<!DOCTYPE svg PUBLIC "-//W3C//DTD SVG 20010904//EN"
 "http://www.w3.org/TR/2001/REC-SVG-20010904/DTD/svg10.dtd">
<svg version="1.0" xmlns="http://www.w3.org/2000/svg"
 width="1024.000000pt" height="1024.000000pt" viewBox="0 0 1024.000000 1024.000000"
 preserveAspectRatio="xMidYMid meet">

<g transform="translate(0.000000,1024.000000) scale(0.100000,-0.100000)"
fill="#000000" stroke="none">
<path d="M3500 8620 l-905 -5 -81 -31 c-232 -90 -390 -276 -439 -520 -14 -71
-15 -323 -13 -2579 l3 -2500 23 -70 c44 -128 90 -204 182 -296 94 -94 155
-134 275 -176 l80 -28 1940 0 c1822 0 1945 1 2015 18 136 32 285 117 368 212
l40 46 113 -138 c344 -419 566 -677 605 -704 161 -111 347 -127 516 -47 160
77 267 225 292 405 9 65 -11 181 -46 258 -30 65 -57 95 -413 455 -209 212
-435 441 -502 510 l-122 124 53 76 c144 205 225 392 277 636 21 97 24 134 23
344 0 206 -3 248 -23 340 -33 154 -73 269 -146 415 -77 154 -168 284 -287 410
l-87 92 -3 529 -3 529 -34 70 c-32 65 -83 119 -774 812 -788 790 -784 787
-905 812 -55 11 -226 12 -2022 1z m1870 -847 c-1 -516 0 -541 19 -604 51 -161
195 -311 370 -381 56 -23 59 -23 614 -26 l557 -3 0 -340 0 -339 -57 29 c-151
76 -370 139 -557 162 -138 17 -412 6 -543 -20 -542 -111 -1002 -503 -1211
-1032 -140 -353 -148 -803 -21 -1165 191 -546 669 -960 1255 -1085 97 -21 135
-24 344 -24 249 0 340 12 509 67 l64 21 33 -39 32 -39 -21 -38 c-33 -58 -102
-123 -165 -154 l-57 -28 -1950 0 -1950 0 -57 28 c-72 35 -149 119 -180 195
l-23 57 -3 2479 c-2 2735 -7 2545 59 2648 36 56 88 99 156 131 48 22 54 22
643 27 327 3 943 6 1368 8 l773 3 -1 -538z m1360 -701 c2 -2 -191 -2 -430 0
l-435 3 -54 30 c-29 16 -66 45 -82 64 -57 70 -59 85 -59 540 l0 415 527 -524
c291 -289 530 -526 533 -528z m-325 -1140 c265 -60 496 -184 680 -366 115
-115 181 -203 249 -336 102 -200 143 -371 145 -612 2 -132 -2 -176 -24 -283
-55 -272 -170 -489 -364 -684 -274 -277 -603 -407 -1006 -396 -363 9 -684 150
-940 410 -187 191 -303 408 -362 680 -25 115 -25 408 1 525 61 280 178 502
366 691 200 201 442 327 727 379 142 26 392 22 528 -8z m838 -2630 c10 -10 15
-22 12 -25 -3 -4 -2 -5 2 -2 8 6 583 -565 583 -579 0 -5 -8 -2 -18 7 -16 15
-18 15 -19 -2 -1 -14 4 -18 26 -15 31 4 78 -36 67 -55 -4 -7 -1 -8 8 -5 19 7
22 -12 4 -20 -8 -3 -6 -4 4 -3 14 2 228 -195 228 -210 0 -3 -6 0 -14 6 -10 8
-16 9 -21 1 -3 -5 1 -11 9 -11 9 -1 22 -2 29 -3 6 0 22 -21 35 -46 74 -147
-53 -304 -219 -269 -63 13 -93 41 -251 231 -94 112 -124 156 -75 110 13 -12
26 -19 30 -16 4 4 14 1 22 -6 9 -7 15 -9 14 -4 -1 5 -1 16 0 24 1 11 4 11 13
2 17 -17 29 -15 22 3 -8 19 -34 19 -61 0 -18 -13 -22 -12 -38 5 -10 11 -21 17
-25 15 -5 -3 -70 70 -147 161 -76 92 -164 197 -195 234 -32 38 -58 70 -58 73
0 3 6 7 13 10 6 2 4 3 -5 2 -11 -2 -52 40 -117 121 l-101 123 34 26 c18 14 37
25 42 25 5 0 0 -7 -11 -16 -11 -8 -20 -20 -20 -27 -1 -7 -7 -11 -14 -9 -7 1
-10 -2 -6 -8 3 -6 10 -8 15 -5 5 3 16 -2 25 -11 9 -9 18 -14 21 -12 7 8 -7 39
-15 33 -4 -2 -8 3 -8 11 0 8 6 13 12 10 8 -3 11 5 9 20 -2 19 11 34 64 74 36
28 69 50 73 50 3 0 13 -8 22 -18z"/>
<path d="M3074 7301 c-110 -27 -160 -159 -95 -250 46 -64 -1 -61 897 -62 775
0 817 1 847 19 106 61 104 214 -3 276 -34 21 -48 21 -825 23 -434 1 -804 -2
-821 -6z"/>
<path d="M3045 6446 c-117 -52 -127 -228 -15 -287 33 -18 75 -19 850 -19 796
0 816 1 848 20 54 33 74 75 70 147 -3 53 -9 68 -33 94 -58 62 -20 59 -892 59
-643 -1 -804 -3 -828 -14z"/>
<path d="M3045 5596 c-67 -29 -105 -106 -91 -181 9 -47 59 -102 104 -115 25
-8 218 -10 584 -8 536 3 547 3 575 24 15 11 39 36 51 55 20 28 23 44 20 92 -4
46 -10 63 -34 88 -58 61 -33 59 -631 59 -433 -1 -554 -4 -578 -14z"/>
<path d="M6059 5677 c-111 -31 -203 -142 -279 -335 l-33 -84 -36 6 c-20 3 -91
9 -157 12 -172 9 -261 -14 -331 -88 -107 -113 -73 -316 85 -504 l59 -71 -49
-59 c-222 -267 -209 -520 30 -594 76 -24 217 -26 329 -6 l72 13 12 -36 c55
-171 159 -324 254 -374 30 -16 58 -21 112 -22 65 0 75 3 121 35 27 19 69 58
92 85 41 50 121 204 135 260 12 51 17 53 102 38 104 -19 281 -12 348 13 74 28
129 86 150 158 15 52 16 69 5 130 -7 41 -28 100 -50 142 -36 69 -112 176 -144
203 -14 12 -12 18 24 57 53 58 124 168 151 235 32 82 31 170 -4 240 -66 135
-234 178 -518 134 l-46 -7 -22 63 c-41 115 -114 234 -185 301 -58 55 -149 77
-227 55z m132 -196 c48 -50 124 -190 134 -246 6 -30 5 -30 -77 -58 -118 -41
-144 -42 -230 -8 -40 15 -81 31 -92 35 -24 8 -17 35 35 144 46 95 122 182 159
182 15 0 40 -17 71 -49z m-553 -375 c35 -8 65 -15 66 -17 4 -5 -30 -218 -35
-223 -2 -2 -44 -34 -93 -72 l-90 -67 -34 39 c-104 118 -157 256 -119 307 31
43 183 59 305 33z m1210 -1 c29 -9 56 -24 62 -35 33 -61 -16 -182 -122 -304
l-33 -38 -90 67 -90 68 -21 111 c-12 61 -20 112 -18 114 6 8 154 30 205 31 30
1 79 -6 107 -14z m-955 -95 c-23 -14 -29 -14 -31 -3 -2 8 -1 21 2 29 4 11 10
12 31 2 l25 -11 -27 -17z m490 13 c3 -16 5 -29 4 -30 -1 0 -18 7 -37 17 l-35
18 25 11 c36 14 37 14 43 -16z m-210 -109 c29 -15 94 -51 145 -81 l92 -54 0
-123 c0 -68 -3 -143 -6 -168 -6 -44 -8 -46 -93 -96 -47 -27 -110 -62 -139 -77
l-54 -26 -121 66 c-67 37 -130 72 -140 79 -14 11 -18 36 -23 148 -10 189 -8
194 73 243 61 36 204 114 211 115 1 0 26 -12 55 -26z m-505 -318 l-3 -24 -24
19 -24 20 24 25 c23 25 24 25 27 5 2 -11 2 -32 0 -45z m949 6 c-6 -7 -19 -18
-29 -23 -16 -9 -18 -5 -18 36 l0 47 29 -24 c21 -17 26 -26 18 -36z m233 -218
c44 -62 71 -140 68 -193 -3 -40 -7 -47 -38 -66 -30 -17 -51 -20 -150 -19 -63
0 -133 6 -156 12 l-41 12 14 92 c8 51 17 103 21 115 4 12 48 53 97 91 l90 70
33 -36 c18 -21 46 -56 62 -78z m-1311 68 c25 -21 67 -53 92 -71 l47 -33 13
-101 c7 -56 14 -106 14 -112 0 -13 -115 -34 -193 -35 -186 -1 -234 64 -158
216 34 67 112 172 130 173 4 1 29 -16 55 -37z m357 -234 c37 -22 38 -22 13
-29 -42 -12 -47 -10 -51 21 -3 17 -3 30 -2 30 2 0 20 -10 40 -22z m481 -34
c-2 -3 -17 0 -33 6 l-28 11 30 18 c29 18 29 18 32 -7 2 -13 2 -26 -1 -28z
m-135 -135 c49 -18 88 -37 88 -44 0 -24 -57 -154 -90 -205 -38 -59 -93 -110
-120 -110 -48 0 -140 121 -185 244 -15 42 -26 78 -24 79 18 14 181 65 209 66
19 1 74 -13 122 -30z"/>
<path d="M6040 4752 c-39 -21 -80 -89 -80 -134 0 -97 106 -184 194 -159 141
38 170 212 50 291 -38 26 -117 26 -164 2z"/>
<path d="M7129 3242 c-18 -15 -20 -20 -8 -27 8 -5 11 -5 7 0 -4 4 3 16 15 26
12 10 19 18 16 19 -4 0 -17 -8 -30 -18z"/>
<path d="M7171 3234 c0 -11 3 -14 6 -6 3 7 2 16 -1 19 -3 4 -6 -2 -5 -13z"/>
<path d="M7333 3178 c2 -7 10 -24 20 -38 16 -23 17 -23 17 -4 0 12 -9 29 -19
38 -14 13 -19 14 -18 4z"/>
<path d="M7254 3169 c-3 -6 -14 -9 -24 -6 -11 3 -21 -1 -23 -7 -5 -11 3 -12
44 -7 7 1 21 31 14 31 -2 0 -7 -5 -11 -11z"/>
<path d="M7127 3142 c-4 -23 -4 -24 7 -9 7 9 16 14 19 10 4 -3 7 -2 7 4 0 6
-6 13 -14 16 -9 4 -16 -3 -19 -21z"/>
<path d="M7279 3153 c-13 -16 -12 -17 4 -4 9 7 17 15 17 17 0 8 -8 3 -21 -13z"/>
<path d="M7040 3135 c0 -10 23 -31 43 -38 24 -9 21 -4 -13 21 -16 13 -30 20
-30 17z"/>
<path d="M7416 3096 c3 -8 13 -17 22 -21 13 -5 13 -2 -3 15 -21 24 -26 25 -19
6z"/>
<path d="M7358 3093 c6 -2 9 -10 6 -15 -4 -7 -2 -8 5 -4 13 9 5 26 -12 25 -9
0 -8 -2 1 -6z"/>
<path d="M7210 3080 c-9 -6 -10 -10 -3 -10 6 0 15 5 18 10 8 12 4 12 -15 0z"/>
<path d="M7231 3066 c-18 -22 2 -25 22 -4 13 13 14 18 3 18 -7 0 -19 -6 -25
-14z"/>
<path d="M7328 3037 c3 -12 7 -16 10 -9 2 7 7 10 12 7 4 -3 10 1 13 8 3 7 -5
13 -18 13 -18 1 -21 -2 -17 -19z"/>
<path d="M7121 3042 c-1 -7 6 -15 14 -18 8 -4 13 -9 11 -13 -2 -3 5 -14 14
-24 13 -14 20 -15 26 -6 4 7 3 10 -3 6 -6 -4 -15 5 -21 18 -13 28 -10 30 19
15 11 -6 19 -7 19 -1 0 11 -47 24 -60 16 -4 -3 -11 1 -13 7 -4 10 -6 10 -6 0z"/>
<path d="M7258 3043 c6 -2 18 -2 25 0 6 3 1 5 -13 5 -14 0 -19 -2 -12 -5z"/>
<path d="M7275 3020 c3 -5 8 -10 11 -10 2 0 4 5 4 10 0 6 -5 10 -11 10 -5 0
-7 -4 -4 -10z"/>
<path d="M7470 3013 c11 -8 25 -11 30 -8 6 3 10 -1 10 -10 0 -9 5 -13 11 -10
17 11 -18 43 -47 43 -24 0 -25 -1 -4 -15z"/>
<path d="M7225 3000 c3 -5 10 -10 16 -10 5 0 9 5 9 10 0 6 -7 10 -16 10 -8 0
-12 -4 -9 -10z"/>
<path d="M7385 3000 c3 -5 8 -10 11 -10 2 0 4 5 4 10 0 6 -5 10 -11 10 -5 0
-7 -4 -4 -10z"/>
<path d="M7435 2999 c-4 -6 -5 -12 -2 -15 2 -3 7 2 10 11 7 17 1 20 -8 4z"/>
<path d="M7463 2985 c0 -7 6 -11 14 -8 7 3 13 6 13 8 0 2 -6 5 -13 8 -8 3 -14
-1 -14 -8z"/>
<path d="M7265 2970 c4 -6 11 -8 16 -5 14 9 11 15 -7 15 -8 0 -12 -5 -9 -10z"/>
<path d="M7316 2972 c-2 -4 4 -8 14 -8 10 0 16 4 14 8 -3 4 -9 8 -14 8 -5 0
-11 -4 -14 -8z"/>
<path d="M7206 2954 c-4 -9 -4 -19 -1 -22 3 -3 5 0 5 7 0 7 4 9 10 6 6 -3 7 1
4 9 -8 20 -10 20 -18 0z"/>
<path d="M7390 2955 c-9 -10 -9 -15 -1 -15 6 0 11 5 11 11 0 5 5 7 10 4 6 -3
10 -1 10 4 0 16 -16 13 -30 -4z"/>
<path d="M7546 2949 c3 -5 12 -9 20 -9 7 0 19 -9 26 -20 7 -11 17 -20 22 -20
15 0 -34 48 -55 53 -10 3 -17 1 -13 -4z"/>
<path d="M7280 2946 c0 -2 8 -10 18 -17 15 -13 16 -12 3 4 -13 16 -21 21 -21
13z"/>
<path d="M7340 2922 c0 -5 7 -9 15 -9 8 0 15 4 15 9 0 4 -7 8 -15 8 -8 0 -15
-4 -15 -8z"/>
<path d="M7498 2908 c-4 -24 -3 -26 13 -17 11 5 19 12 19 15 0 3 -4 3 -9 -1
-5 -3 -11 3 -13 12 -3 13 -6 10 -10 -9z"/>
<path d="M7397 2900 c-3 -11 -3 -20 0 -20 10 0 32 28 26 34 -11 11 -21 6 -26
-14z"/>
<path d="M7566 2898 c3 -4 9 -8 15 -8 5 0 9 4 9 8 0 5 -7 9 -15 9 -8 0 -12 -4
-9 -9z"/>
<path d="M7238 2888 c5 -5 16 -8 23 -6 8 3 3 7 -10 11 -17 4 -21 3 -13 -5z"/>
<path d="M7350 2896 c0 -2 7 -9 15 -16 13 -11 14 -10 9 4 -5 14 -24 23 -24 12z"/>
<path d="M7260 2862 c0 -5 10 -17 21 -28 22 -19 22 -19 10 3 -12 24 -31 39
-31 25z"/>
<path d="M7465 2860 c3 -5 8 -10 11 -10 2 0 4 5 4 10 0 6 -5 10 -11 10 -5 0
-7 -4 -4 -10z"/>
<path d="M7490 2860 c0 -5 5 -10 10 -10 6 0 10 5 10 10 0 6 -4 10 -10 10 -5 0
-10 -4 -10 -10z"/>
<path d="M7540 2862 c0 -11 -56 -43 -64 -35 -3 3 -6 1 -6 -5 0 -16 5 -15 50
11 38 21 51 37 30 37 -5 0 -10 -4 -10 -8z"/>
<path d="M7570 2860 c0 -5 4 -10 9 -10 6 0 13 5 16 10 3 6 -1 10 -9 10 -9 0
-16 -4 -16 -10z"/>
<path d="M7434 2849 c-4 -7 -3 -9 4 -5 5 3 13 0 15 -6 4 -9 6 -10 6 -1 1 17
-16 25 -25 12z"/>
<path d="M7316 2837 c3 -10 9 -15 12 -12 3 3 0 11 -7 18 -10 9 -11 8 -5 -6z"/>
<path d="M7626 2835 c-18 -13 -18 -14 3 -12 11 1 21 5 21 10 0 5 7 7 15 3 8
-3 15 -1 15 4 0 15 -32 12 -54 -5z"/>
<path d="M7407 2810 c-3 -11 -1 -18 4 -14 5 3 9 1 9 -5 0 -16 28 -2 35 17 5
14 4 15 -6 5 -15 -15 -33 -17 -24 -4 3 5 1 12 -4 15 -5 3 -11 -3 -14 -14z"/>
<path d="M7591 2822 c-1 -7 -6 -10 -13 -6 -6 4 -8 3 -4 -4 3 -6 0 -17 -9 -25
-12 -13 -13 -16 0 -21 8 -3 17 0 21 5 3 6 15 9 25 6 11 -3 19 -1 19 4 0 5 -12
9 -27 9 -20 0 -24 3 -14 9 7 5 11 15 8 22 -4 11 -6 11 -6 1z"/>
<path d="M7690 2815 c-1 -11 -4 -14 -7 -7 -5 14 -23 16 -23 3 0 -5 10 -13 21
-16 17 -6 19 -9 8 -16 -9 -6 -10 -9 -2 -9 17 0 21 12 12 40 -6 21 -7 22 -9 5z"/>
<path d="M7315 2790 c20 -22 34 -28 16 -7 -6 8 -8 17 -4 20 3 4 -2 7 -12 7
-17 0 -17 -1 0 -20z"/>
<path d="M7365 2790 c-3 -5 -1 -10 6 -10 8 0 7 -6 -4 -17 -11 -14 -12 -21 -3
-29 16 -15 43 -13 43 3 0 7 -4 13 -9 13 -5 0 -8 6 -7 13 4 34 -11 51 -26 27z
m23 -55 c-3 -3 -9 2 -12 12 -6 14 -5 15 5 6 7 -7 10 -15 7 -18z"/>
<path d="M7455 2781 c-3 -5 -1 -12 5 -16 5 -3 10 -1 10 5 0 6 5 8 10 5 6 -3
10 -1 10 4 0 13 -27 14 -35 2z"/>
<path d="M7730 2780 c8 -5 10 -10 4 -10 -7 0 -14 -7 -17 -15 -5 -12 -2 -12 18
-3 19 9 22 14 14 25 -6 7 -17 13 -23 13 -6 0 -4 -5 4 -10z"/>
<path d="M7636 2763 c-6 -14 -5 -15 5 -6 7 7 10 15 7 18 -3 3 -9 -2 -12 -12z"/>
<path d="M7420 2762 c0 -7 4 -12 10 -12 5 0 7 -7 4 -15 -4 -8 -2 -15 4 -15 13
0 9 27 -6 42 -9 9 -12 9 -12 0z"/>
<path d="M7540 2740 c-9 -6 -10 -10 -3 -10 6 0 15 5 18 10 8 12 4 12 -15 0z"/>
<path d="M7464 2723 c0 -10 -6 -18 -14 -18 -8 -1 -14 -7 -12 -15 3 -11 -1 -10
-16 3 -10 9 -23 17 -28 17 -5 0 -2 -6 7 -13 8 -7 20 -21 27 -32 10 -19 11 -19
21 7 6 17 16 25 28 24 10 -2 13 -1 6 1 -7 2 -10 10 -7 18 3 7 1 16 -4 19 -5 3
-9 -2 -8 -11z"/>
<path d="M7748 2724 c-10 -9 3 -34 17 -34 7 0 16 7 19 16 4 9 2 13 -5 8 -6 -4
-14 -1 -18 5 -4 6 -10 9 -13 5z"/>
<path d="M7636 2704 c-5 -14 -4 -15 9 -4 17 14 19 20 6 20 -5 0 -12 -7 -15
-16z"/>
<path d="M7520 2680 c8 -5 11 -12 7 -16 -3 -4 -15 -1 -24 7 -15 11 -15 10 1
-9 17 -20 46 -30 46 -16 0 14 -22 44 -33 44 -8 0 -7 -4 3 -10z"/>
<path d="M7715 2660 c-3 -5 -1 -10 5 -10 6 0 8 -5 4 -12 -4 -7 -3 -8 4 -4 6 4
9 13 5 21 -6 18 -10 19 -18 5z"/>
<path d="M7450 2640 c0 -5 4 -10 9 -10 6 0 13 5 16 10 3 6 -1 10 -9 10 -9 0
-16 -4 -16 -10z"/>
<path d="M7484 2608 c1 -30 46 -36 46 -7 0 20 15 26 24 10 3 -5 15 -7 26 -4
14 4 20 0 20 -11 0 -9 -4 -16 -10 -16 -5 0 -10 -4 -10 -10 0 -5 14 -10 31 -10
20 0 28 4 23 12 -5 8 0 9 15 5 18 -4 20 -3 10 9 -10 13 -14 12 -29 -1 -16 -14
-18 -13 -23 13 -5 26 -10 29 -50 29 -34 1 -44 -2 -43 -14 0 -9 -5 -18 -11 -20
-7 -3 -13 0 -13 7 0 6 4 8 10 5 6 -3 7 1 4 9 -9 24 -21 19 -20 -6z"/>
<path d="M7750 2626 c0 -2 8 -10 18 -17 15 -13 16 -12 3 4 -13 16 -21 21 -21
13z"/>
<path d="M7846 2617 c3 -10 9 -15 12 -12 3 3 0 11 -7 18 -10 9 -11 8 -5 -6z"/>
<path d="M7540 2591 c0 -5 5 -13 10 -16 6 -3 10 -2 10 4 0 5 -4 13 -10 16 -5
3 -10 2 -10 -4z"/>
<path d="M7755 2581 c-3 -5 -1 -12 5 -16 5 -3 10 1 10 9 0 18 -6 21 -15 7z"/>
<path d="M7816 2575 c4 -8 11 -15 16 -15 6 0 5 6 -2 15 -7 8 -14 15 -16 15 -2
0 -1 -7 2 -15z"/>
<path d="M7862 2563 c-18 -23 -20 -29 -8 -31 9 -2 13 -10 9 -20 -6 -15 -4 -15
9 -4 9 7 27 12 40 11 44 -4 60 1 56 17 -4 24 -45 37 -52 17 -4 -11 -2 -14 9
-9 9 3 15 0 15 -8 0 -9 -8 -12 -25 -8 -15 2 -22 9 -18 16 4 6 0 5 -9 -2 -11
-9 -18 -10 -23 -2 -3 5 -1 10 4 10 6 0 11 6 11 14 0 8 6 17 13 19 6 3 7 6 1 6
-5 1 -20 -11 -32 -26z"/>
<path d="M7693 2563 c9 -2 23 -2 30 0 6 3 -1 5 -18 5 -16 0 -22 -2 -12 -5z"/>
<path d="M7520 2557 c0 -5 10 -21 22 -35 12 -15 18 -19 15 -9 -5 12 -1 17 11
17 14 0 15 2 2 10 -9 6 -17 5 -21 -2 -4 -6 -11 -3 -18 8 -6 11 -11 15 -11 11z"/>
<path d="M7637 2544 c-16 -9 -27 -18 -24 -20 7 -7 57 18 57 28 0 10 1 10 -33
-8z"/>
<path d="M7980 2531 c0 -6 5 -13 10 -16 6 -4 8 -10 6 -14 -3 -4 1 -8 9 -8 19
0 19 3 -5 27 -11 11 -20 16 -20 11z"/>
<path d="M7801 2504 c0 -11 3 -14 6 -6 3 7 2 16 -1 19 -3 4 -6 -2 -5 -13z"/>
<path d="M7831 2489 c-9 -26 -9 -31 0 -22 9 9 18 9 32 2 14 -8 18 -8 13 0 -4
6 -2 11 3 11 6 0 11 5 11 11 0 6 -7 9 -15 5 -8 -3 -18 2 -23 11 -7 12 -11 9
-21 -18z"/>
<path d="M7608 2498 c-5 -11 0 -15 15 -14 21 1 38 26 17 26 -6 0 -8 -4 -5 -10
3 -5 2 -10 -4 -10 -5 0 -11 5 -13 12 -3 8 -6 7 -10 -4z"/>
<path d="M7703 2488 c8 -12 24 -18 51 -18 43 0 45 9 3 12 -14 1 -23 6 -21 10
3 5 9 6 14 3 5 -3 11 -1 15 5 4 6 -9 9 -34 8 -35 -1 -38 -3 -28 -20z"/>
<path d="M7962 2505 c4 -4 3 -14 -3 -22 -7 -8 -8 -13 -1 -13 15 0 23 28 9 36
-7 4 -9 4 -5 -1z"/>
<path d="M7585 2470 c10 -11 20 -20 23 -20 3 0 -3 9 -13 20 -10 11 -20 20 -23
20 -3 0 3 -9 13 -20z"/>
<path d="M7910 2480 c0 -5 5 -10 11 -10 5 0 7 5 4 10 -3 6 -8 10 -11 10 -2 0
-4 -4 -4 -10z"/>
<path d="M8021 2472 c-16 -30 -14 -34 11 -21 18 10 24 8 35 -7 7 -10 13 -13
13 -8 0 6 -11 21 -24 33 -24 23 -24 23 -35 3z"/>
<path d="M7700 2448 c0 -5 6 -8 14 -5 7 3 18 1 23 -4 6 -6 14 -5 21 3 8 10 3
13 -24 15 -19 1 -34 -3 -34 -9z"/>
<path d="M7780 2450 c0 -5 5 -10 10 -10 6 0 10 5 10 10 0 6 -4 10 -10 10 -5 0
-10 -4 -10 -10z"/>
<path d="M7850 2451 c0 -5 5 -13 10 -16 6 -3 10 -2 10 4 0 5 -4 13 -10 16 -5
3 -10 2 -10 -4z"/>
<path d="M7965 2444 c-14 -15 -14 -17 2 -30 10 -7 29 -13 43 -13 17 1 19 3 7
6 -9 2 -15 8 -12 13 3 4 -4 6 -15 3 -25 -7 -26 12 -2 26 9 6 12 11 5 11 -6 0
-19 -7 -28 -16z"/>
<path d="M7810 2430 c0 -5 5 -10 11 -10 5 0 7 5 4 10 -3 6 -8 10 -11 10 -2 0
-4 -4 -4 -10z"/>
<path d="M7875 2420 c-10 -11 -13 -20 -7 -20 6 0 13 6 16 13 3 6 4 -3 2 -20
-3 -18 0 -35 5 -39 10 -6 11 -3 14 49 2 42 -4 46 -30 17z"/>
<path d="M8030 2430 c-13 -8 -12 -10 3 -10 11 0 15 -4 11 -12 -5 -8 -2 -9 9
-5 12 4 17 1 17 -9 0 -13 -7 -15 -34 -10 -19 4 -37 2 -40 -3 -4 -6 2 -8 14 -6
16 3 20 -1 20 -21 0 -13 4 -24 9 -24 5 0 8 8 7 17 0 10 7 19 17 21 9 2 17 -2
17 -8 0 -7 -7 -9 -16 -6 -13 5 -14 4 -6 -7 7 -8 9 -16 6 -19 -2 -3 2 -8 10
-11 10 -4 13 -1 9 9 -3 7 -1 14 5 14 6 0 9 -8 8 -17 -2 -12 -12 -18 -27 -18
-13 0 -24 -4 -25 -10 0 -5 -3 -17 -7 -25 -22 -58 -18 -75 19 -71 6 1 17 -6 24
-14 10 -13 9 -15 -11 -16 -13 0 -18 -3 -11 -6 10 -4 10 -8 1 -19 -16 -20 -29
-17 -24 4 5 27 -8 43 -25 32 -11 -7 -11 -12 -2 -23 10 -11 7 -16 -15 -26 -23
-10 -25 -10 -14 2 9 12 8 16 -5 21 -30 12 -49 6 -61 -19 -6 -14 -7 -23 -2 -19
5 3 9 -1 9 -9 0 -32 112 -37 169 -7 46 23 82 65 74 86 -3 8 0 14 7 14 6 0 10
8 8 18 -1 9 2 24 7 32 8 13 7 13 -8 1 -14 -11 -17 -11 -19 0 0 8 -2 19 -2 24
-2 13 -16 17 -40 11 -12 -3 -16 -10 -13 -20 3 -8 2 -18 -4 -21 -5 -4 -6 -11
-3 -17 4 -6 2 -8 -4 -4 -6 3 -13 2 -17 -4 -8 -12 -25 -13 -25 -1 0 5 10 11 21
14 17 5 20 11 15 30 -5 21 -1 25 37 37 31 10 37 15 22 18 -11 2 -24 8 -30 14
-6 6 -3 7 10 2 17 -7 18 -6 5 8 -8 9 -18 14 -22 12 -8 -5 -18 10 -23 36 -3 18
-28 50 -37 50 -2 0 -10 -5 -18 -10z m45 -167 c4 -15 2 -23 -5 -23 -6 0 -8 5
-4 12 5 8 2 9 -9 5 -18 -7 -24 8 -7 18 6 4 7 12 4 18 -5 8 -4 9 3 2 6 -5 14
-20 18 -32z m55 -5 c0 -18 -2 -20 -9 -8 -6 8 -7 18 -5 22 9 14 14 9 14 -14z
m9 -42 c10 -12 8 -13 -8 -9 -12 3 -21 9 -21 14 0 14 16 11 29 -5z m31 4 c0 -5
-2 -10 -4 -10 -3 0 -8 5 -11 10 -3 6 -1 10 4 10 6 0 11 -4 11 -10z m-27 -64
c7 3 -1 -6 -16 -20 -15 -14 -33 -26 -40 -26 -7 0 -6 4 3 10 8 5 10 10 4 10 -6
0 -11 7 -11 15 0 10 4 12 12 5 9 -8 15 -5 20 7 5 12 9 14 12 5 3 -6 10 -9 16
-6z m-165 -42 c13 4 22 1 25 -9 5 -12 0 -14 -31 -9 -43 7 -46 9 -37 24 6 9 9
9 15 0 4 -7 16 -9 28 -6z m72 -16 c0 -15 -15 -8 -28 12 -12 19 -11 20 8 8 11
-7 20 -16 20 -20z"/>
<path d="M7772 2413 c2 -9 10 -18 18 -20 12 -4 13 -3 1 5 -7 5 -10 15 -7 21 4
6 2 11 -4 11 -6 0 -10 -8 -8 -17z"/>
<path d="M7927 2423 c-4 -3 -7 -14 -7 -24 0 -12 6 -16 20 -12 11 3 20 9 20 14
0 5 -8 5 -17 2 -12 -5 -15 -2 -10 10 7 18 5 21 -6 10z"/>
<path d="M7698 2335 c15 -17 29 -27 31 -22 2 5 -6 15 -18 23 -12 9 -19 19 -17
23 3 4 -1 8 -9 8 -9 0 -5 -11 13 -32z"/>
<path d="M7970 2353 c0 -13 -6 -23 -12 -23 -9 0 -8 -3 2 -10 9 -6 19 -5 29 3
12 10 13 8 7 -13 -5 -17 -4 -21 2 -11 8 11 10 11 14 0 3 -8 9 -10 14 -5 5 5 4
11 -3 13 -9 3 -11 14 -6 31 6 24 4 25 -10 14 -13 -11 -17 -10 -26 5 -9 16 -10
16 -11 -4z"/>
<path d="M8147 2350 c10 -11 19 -20 21 -20 1 0 -2 9 -8 20 -6 11 -15 20 -20
20 -6 0 -2 -9 7 -20z"/>
<path d="M7905 2338 c-10 -15 -18 -19 -23 -12 -8 13 -44 15 -36 2 4 -5 9 -7
12 -4 3 3 10 2 17 -4 7 -6 23 -6 41 -1 16 5 23 10 15 10 -7 1 -11 7 -7 16 8
22 0 18 -19 -7z"/>
<path d="M7755 2316 c-15 -23 -15 -27 0 -50 10 -14 23 -26 30 -26 17 0 64 39
48 40 -7 0 -13 -4 -13 -10 0 -14 -43 -13 -58 2 -17 17 -15 33 3 18 8 -6 19 -9
25 -5 5 3 10 1 10 -6 0 -8 4 -8 15 1 20 17 3 29 -31 22 -26 -5 -31 7 -12 26 7
7 9 12 5 12 -3 0 -14 -11 -22 -24z"/>
<path d="M7845 2300 c-3 -5 -2 -10 4 -10 5 0 13 5 16 10 3 6 2 10 -4 10 -5 0
-13 -4 -16 -10z"/>
<path d="M7928 2303 c7 -3 16 -2 19 1 4 3 -2 6 -13 5 -11 0 -14 -3 -6 -6z"/>
<path d="M8167 2281 c-4 -17 -3 -21 5 -13 5 5 8 16 6 23 -3 8 -7 3 -11 -10z"/>
<path d="M7887 2279 c9 -9 10 -16 2 -26 -9 -10 -7 -13 10 -13 28 0 27 22 -1
39 -17 10 -20 10 -11 0z"/>
<path d="M7936 2274 c-3 -9 -6 -23 -5 -32 0 -14 2 -14 6 -2 4 8 13 20 21 26
13 9 13 12 -1 17 -9 3 -18 -1 -21 -9z"/>
<path d="M7983 2267 c4 -10 3 -16 -2 -13 -5 3 -15 -2 -22 -11 -12 -14 -11 -15
10 -8 20 6 23 4 18 -9 -5 -11 -3 -15 5 -10 7 4 8 3 4 -4 -4 -6 -13 -9 -21 -5
-16 6 -21 -12 -6 -21 33 -21 53 58 22 86 -12 11 -13 10 -8 -5z"/>
<path d="M7858 2226 c24 -31 21 -46 -9 -46 -23 0 -17 -15 13 -31 17 -9 20 -9
16 3 -6 16 10 41 32 51 8 4 5 5 -8 3 -19 -4 -22 -1 -17 12 3 9 3 13 -1 9 -4
-4 -17 1 -28 10 -18 16 -18 15 2 -11z"/>
<path d="M7815 2230 c3 -5 8 -10 11 -10 2 0 4 5 4 10 0 6 -5 10 -11 10 -5 0
-7 -4 -4 -10z"/>
<path d="M7840 2205 c0 -8 4 -15 10 -15 5 0 7 7 4 15 -4 8 -8 15 -10 15 -2 0
-4 -7 -4 -15z"/>
<path d="M7930 2210 c0 -5 5 -10 10 -10 6 0 10 5 10 10 0 6 -4 10 -10 10 -5 0
-10 -4 -10 -10z"/>
<path d="M7914 2176 c-3 -8 -12 -12 -20 -9 -10 4 -12 0 -8 -11 8 -21 17 -20
32 4 7 11 18 17 27 14 8 -4 15 -1 15 5 0 16 -40 13 -46 -3z"/>
</g>
</svg>
